<?xml version="1.0" encoding="UTF-8" standalone="no"?>
<svg
   width="1440pt"
   height="720pt"
   viewBox="0 0 1440 720"
   version="1.1"
   id="svg136"
   xmlns:xlink="http://www.w3.org/1999/xlink"
   xmlns="http://www.w3.org/2000/svg"
   xmlns:svg="http://www.w3.org/2000/svg"
   xmlns:rdf="http://www.w3.org/1999/02/22-rdf-syntax-ns#"
   xmlns:cc="http://creativecommons.org/ns#"
   xmlns:dc="http://purl.org/dc/elements/1.1/">
  <metadata
     id="metadata1">
    <rdf:RDF>
      <cc:Work>
        <dc:type
           rdf:resource="http://purl.org/dc/dcmitype/StillImage" />
        <dc:date>2025-09-30T09:13:38.042571</dc:date>
        <dc:format>image/svg+xml</dc:format>
        <dc:creator>
          <cc:Agent>
            <dc:title>Matplotlib v3.9.3, https://matplotlib.org/</dc:title>
          </cc:Agent>
        </dc:creator>
      </cc:Work>
    </rdf:RDF>
  </metadata>
  <defs
     id="defs1">
    <style
       type="text/css"
       id="style1">*{stroke-linejoin: round; stroke-linecap: butt}</style>
  </defs>
  <g
     id="figure_1">
    <g
       id="patch_1">
      <path
         d="M 0,720 H 1440 V 0 H 0 Z"
         style="fill:none"
         id="path1" />
    </g>
    <g
       id="axes_1">
      <g
         id="patch_2">
        <path
           d="M 180,640.8 H 1296 V 86.4 H 180 Z"
           style="fill:none"
           id="path2" />
      </g>
      <g
         id="matplotlib.axis_1">
        <g
           id="xtick_1">
          <g
             id="line2d_1">
            <defs
               id="defs2">
              <path
                 id="m3ebd514a41"
                 d="M 0,0 V 3.5"
                 style="stroke:#000000;stroke-width:0.8" />
            </defs>
            <g
               id="g2">
              <use
                 xlink:href="#m3ebd514a41"
                 x="230.32114"
                 y="640.79999"
                 style="stroke:#000000;stroke-width:0.8"
                 id="use2" />
            </g>
          </g>
          <g
             id="text_1">
            <!-- 0 -->
            <g
               transform="matrix(0.15,0,0,-0.15,225.54925,659.19766)"
               id="g3">
              <defs
                 id="defs3">
                <path
                   id="DejaVuSans-30"
                   d="m 2034,4250 q -487,0 -733,-480 -245,-479 -245,-1442 0,-959 245,-1439 246,-480 733,-480 491,0 736,480 246,480 246,1439 0,963 -246,1442 -245,480 -736,480 z m 0,500 q 785,0 1199,-621 414,-620 414,-1801 0,-1178 -414,-1799 -414,-620 -1199,-620 -784,0 -1198,620 -414,621 -414,1799 0,1181 414,1801 414,621 1198,621 z"
                   transform="scale(0.015625)" />
              </defs>
              <use
                 xlink:href="#DejaVuSans-30"
                 id="use3" />
            </g>
          </g>
        </g>
        <g
           id="xtick_2">
          <g
             id="line2d_2">
            <g
               id="g4">
              <use
                 xlink:href="#m3ebd514a41"
                 x="433.39267"
                 y="640.79999"
                 style="stroke:#000000;stroke-width:0.8"
                 id="use4" />
            </g>
          </g>
          <g
             id="text_2">
            <!-- 500 -->
            <g
               transform="matrix(0.15,0,0,-0.15,419.07705,659.19766)"
               id="g7">
              <defs
                 id="defs4">
                <path
                   id="DejaVuSans-35"
                   d="M 691,4666 H 3169 V 4134 H 1269 V 2991 q 137,47 274,70 138,23 276,23 781,0 1237,-428 457,-428 457,-1159 Q 3513,744 3044,326 2575,-91 1722,-91 1428,-91 1123,-41 819,9 494,109 v 635 q 281,-153 581,-228 300,-75 634,-75 541,0 856,284 316,284 316,772 0,487 -316,771 -315,285 -856,285 -253,0 -505,-56 -251,-56 -513,-175 z"
                   transform="scale(0.015625)" />
              </defs>
              <use
                 xlink:href="#DejaVuSans-35"
                 id="use5" />
              <use
                 xlink:href="#DejaVuSans-30"
                 x="63.623047"
                 id="use6" />
              <use
                 xlink:href="#DejaVuSans-30"
                 x="127.24609"
                 id="use7" />
            </g>
          </g>
        </g>
        <g
           id="xtick_3">
          <g
             id="line2d_3">
            <g
               id="g8">
              <use
                 xlink:href="#m3ebd514a41"
                 x="636.46423"
                 y="640.79999"
                 style="stroke:#000000;stroke-width:0.8"
                 id="use8" />
            </g>
          </g>
          <g
             id="text_3">
            <!-- 1000 -->
            <g
               transform="matrix(0.15,0,0,-0.15,617.37673,659.19766)"
               id="g12">
              <defs
                 id="defs8">
                <path
                   id="DejaVuSans-31"
                   d="M 794,531 H 1825 V 4091 L 703,3866 v 575 l 1116,225 h 631 V 531 H 3481 V 0 H 794 Z"
                   transform="scale(0.015625)" />
              </defs>
              <use
                 xlink:href="#DejaVuSans-31"
                 id="use9" />
              <use
                 xlink:href="#DejaVuSans-30"
                 x="63.623047"
                 id="use10" />
              <use
                 xlink:href="#DejaVuSans-30"
                 x="127.24609"
                 id="use11" />
              <use
                 xlink:href="#DejaVuSans-30"
                 x="190.86914"
                 id="use12" />
            </g>
          </g>
        </g>
        <g
           id="xtick_4">
          <g
             id="line2d_4">
            <g
               id="g13">
              <use
                 xlink:href="#m3ebd514a41"
                 x="839.53577"
                 y="640.79999"
                 style="stroke:#000000;stroke-width:0.8"
                 id="use13" />
            </g>
          </g>
          <g
             id="text_4">
            <!-- 1500 -->
            <g
               transform="matrix(0.15,0,0,-0.15,820.44827,659.19766)"
               id="g17">
              <use
                 xlink:href="#DejaVuSans-31"
                 id="use14" />
              <use
                 xlink:href="#DejaVuSans-35"
                 x="63.623047"
                 id="use15" />
              <use
                 xlink:href="#DejaVuSans-30"
                 x="127.24609"
                 id="use16" />
              <use
                 xlink:href="#DejaVuSans-30"
                 x="190.86914"
                 id="use17" />
            </g>
          </g>
        </g>
        <g
           id="xtick_5">
          <g
             id="line2d_5">
            <g
               id="g18">
              <use
                 xlink:href="#m3ebd514a41"
                 x="1042.6073"
                 y="640.79999"
                 style="stroke:#000000;stroke-width:0.8"
                 id="use18" />
            </g>
          </g>
          <g
             id="text_5">
            <!-- 2000 -->
            <g
               transform="matrix(0.15,0,0,-0.15,1023.5198,659.19766)"
               id="g22">
              <defs
                 id="defs18">
                <path
                   id="DejaVuSans-32"
                   d="M 1228,531 H 3431 V 0 H 469 v 531 q 359,372 979,998 621,627 780,809 303,340 423,576 121,236 121,464 0,372 -261,606 -261,235 -680,235 -297,0 -627,-103 -329,-103 -704,-313 v 638 q 381,153 712,231 332,78 607,78 725,0 1156,-363 431,-362 431,-968 0,-288 -108,-546 -107,-257 -392,-607 -78,-91 -497,-524 Q 1991,1309 1228,531 Z"
                   transform="scale(0.015625)" />
              </defs>
              <use
                 xlink:href="#DejaVuSans-32"
                 id="use19" />
              <use
                 xlink:href="#DejaVuSans-30"
                 x="63.623047"
                 id="use20" />
              <use
                 xlink:href="#DejaVuSans-30"
                 x="127.24609"
                 id="use21" />
              <use
                 xlink:href="#DejaVuSans-30"
                 x="190.86914"
                 id="use22" />
            </g>
          </g>
        </g>
        <g
           id="xtick_6">
          <g
             id="line2d_6">
            <g
               id="g23">
              <use
                 xlink:href="#m3ebd514a41"
                 x="1245.6788"
                 y="640.79999"
                 style="stroke:#000000;stroke-width:0.8"
                 id="use23" />
            </g>
          </g>
          <g
             id="text_6">
            <!-- 2500 -->
            <g
               transform="matrix(0.15,0,0,-0.15,1226.5914,659.19766)"
               id="g27">
              <use
                 xlink:href="#DejaVuSans-32"
                 id="use24" />
              <use
                 xlink:href="#DejaVuSans-35"
                 x="63.623047"
                 id="use25" />
              <use
                 xlink:href="#DejaVuSans-30"
                 x="127.24609"
                 id="use26" />
              <use
                 xlink:href="#DejaVuSans-30"
                 x="190.86914"
                 id="use27" />
            </g>
          </g>
        </g>
        <g
           id="text_7">
          <!-- epoch -->
          <g
             transform="matrix(0.15,0,0,-0.15,715.15781,677.71484)"
             id="g32"
             style="display:none">
            <defs
               id="defs27">
              <path
                 id="DejaVuSans-65"
                 d="M 3597,1894 V 1613 H 953 q 38,-594 358,-905 320,-311 892,-311 331,0 642,81 311,81 618,244 V 178 Q 3153,47 2828,-22 2503,-91 2169,-91 1331,-91 842,396 353,884 353,1716 q 0,859 464,1363 464,505 1252,505 706,0 1117,-455 411,-454 411,-1235 z m -575,169 q -6,471 -264,752 -258,282 -683,282 -481,0 -770,-272 -289,-272 -333,-766 z"
                 transform="scale(0.015625)" />
              <path
                 id="DejaVuSans-70"
                 d="M 1159,525 V -1331 H 581 v 4831 h 578 v -531 q 182,312 458,463 277,152 661,152 638,0 1036,-506 399,-506 399,-1331 0,-825 -399,-1332 -398,-506 -1036,-506 -384,0 -661,152 -276,152 -458,464 z m 1957,1222 q 0,634 -261,995 -261,361 -717,361 -457,0 -718,-361 -261,-361 -261,-995 0,-634 261,-995 261,-361 718,-361 456,0 717,361 261,361 261,995 z"
                 transform="scale(0.015625)" />
              <path
                 id="DejaVuSans-6f"
                 d="m 1959,3097 q -462,0 -731,-361 -269,-361 -269,-989 0,-628 267,-989 268,-361 733,-361 460,0 728,362 269,363 269,988 0,622 -269,986 -268,364 -728,364 z m 0,487 q 750,0 1178,-488 429,-487 429,-1349 Q 3566,888 3137,398 2709,-91 1959,-91 1206,-91 779,398 353,888 353,1747 q 0,862 426,1349 427,488 1180,488 z"
                 transform="scale(0.015625)" />
              <path
                 id="DejaVuSans-63"
                 d="m 3122,3366 v -538 q -244,135 -489,202 -245,67 -495,67 -560,0 -870,-355 -309,-354 -309,-995 0,-641 309,-996 310,-354 870,-354 250,0 495,67 245,67 489,202 V 134 Q 2881,22 2623,-34 2366,-91 2075,-91 1284,-91 818,406 353,903 353,1747 q 0,856 470,1346 471,491 1290,491 265,0 518,-55 253,-54 491,-163 z"
                 transform="scale(0.015625)" />
              <path
                 id="DejaVuSans-68"
                 d="M 3513,2113 V 0 h -575 v 2094 q 0,497 -194,743 -194,247 -581,247 -466,0 -735,-297 -269,-296 -269,-809 V 0 H 581 v 4863 h 578 V 2956 q 207,316 486,472 280,156 646,156 603,0 912,-373 310,-373 310,-1098 z"
                 transform="scale(0.015625)" />
            </defs>
            <use
               xlink:href="#DejaVuSans-65"
               id="use28" />
            <use
               xlink:href="#DejaVuSans-70"
               x="61.523438"
               id="use29" />
            <use
               xlink:href="#DejaVuSans-6f"
               x="125"
               id="use30" />
            <use
               xlink:href="#DejaVuSans-63"
               x="186.18164"
               id="use31" />
            <use
               xlink:href="#DejaVuSans-68"
               x="241.16211"
               id="use32" />
          </g>
          <text
             xml:space="preserve"
             style="font-style:normal;font-variant:normal;font-weight:normal;font-stretch:normal;font-size:18px;font-family:'Times New Roman';-inkscape-font-specification:'Times New Roman, Normal';font-variant-ligatures:normal;font-variant-caps:normal;font-variant-numeric:normal;font-variant-east-asian:normal;text-align:start;writing-mode:lr-tb;direction:ltr;text-anchor:start;fill:#000000;stroke-width:0.75;stroke-linecap:butt;stroke-linejoin:round"
             x="714.09296"
             y="677.67993"
             id="text136"><tspan
               id="tspan136"
               style="font-style:normal;font-variant:normal;font-weight:normal;font-stretch:normal;font-size:18px;font-family:'Times New Roman';-inkscape-font-specification:'Times New Roman, Normal';font-variant-ligatures:normal;font-variant-caps:normal;font-variant-numeric:normal;font-variant-east-asian:normal;stroke-width:0.75"
               x="714.09296"
               y="677.67993">Epoch</tspan></text>
        </g>
      </g>
      <text
         xml:space="preserve"
         style="font-style:normal;font-variant:normal;font-weight:normal;font-stretch:normal;font-size:18px;font-family:'Times New Roman';-inkscape-font-specification:'Times New Roman, Normal';font-variant-ligatures:normal;font-variant-caps:normal;font-variant-numeric:normal;font-variant-east-asian:normal;text-align:start;writing-mode:lr-tb;direction:ltr;text-anchor:start;fill:#000000;stroke-width:0.75;stroke-linecap:butt;stroke-linejoin:round"
         x="-399.37061"
         y="136.48813"
         id="text136-1"
         transform="rotate(-90)"><tspan
           id="tspan137"
           x="-399.37061"
           y="136.48813">Percentage</tspan></text>
      <g
         id="matplotlib.axis_2">
        <g
           id="ytick_1">
          <g
             id="line2d_7">
            <defs
               id="defs32">
              <path
                 id="mf2bf89e2b9"
                 d="M 0,0 H -3.5"
                 style="stroke:#000000;stroke-width:0.8" />
            </defs>
            <g
               id="g33">
              <use
                 xlink:href="#mf2bf89e2b9"
                 x="180"
                 y="615.59998"
                 style="stroke:#000000;stroke-width:0.8"
                 id="use33" />
            </g>
          </g>
          <g
             id="text_8">
            <!-- 0 -->
            <g
               transform="matrix(0.15,0,0,-0.15,163.45625,621.29883)"
               id="g34">
              <use
                 xlink:href="#DejaVuSans-30"
                 id="use34" />
            </g>
          </g>
        </g>
        <g
           id="ytick_2">
          <g
             id="line2d_8">
            <g
               id="g35">
              <use
                 xlink:href="#mf2bf89e2b9"
                 x="180"
                 y="549.86084"
                 style="stroke:#000000;stroke-width:0.8"
                 id="use35" />
            </g>
          </g>
          <g
             id="text_9">
            <!-- 10 -->
            <g
               transform="matrix(0.15,0,0,-0.15,153.9125,555.5597)"
               id="g37">
              <use
                 xlink:href="#DejaVuSans-31"
                 id="use36" />
              <use
                 xlink:href="#DejaVuSans-30"
                 x="63.623047"
                 id="use37" />
            </g>
          </g>
        </g>
        <g
           id="ytick_3">
          <g
             id="line2d_9">
            <g
               id="g38">
              <use
                 xlink:href="#mf2bf89e2b9"
                 x="180"
                 y="484.12173"
                 style="stroke:#000000;stroke-width:0.8"
                 id="use38" />
            </g>
          </g>
          <g
             id="text_10">
            <!-- 20 -->
            <g
               transform="matrix(0.15,0,0,-0.15,153.9125,489.82057)"
               id="g40">
              <use
                 xlink:href="#DejaVuSans-32"
                 id="use39" />
              <use
                 xlink:href="#DejaVuSans-30"
                 x="63.623047"
                 id="use40" />
            </g>
          </g>
        </g>
        <g
           id="ytick_4">
          <g
             id="line2d_10">
            <g
               id="g41">
              <use
                 xlink:href="#mf2bf89e2b9"
                 x="180"
                 y="418.3826"
                 style="stroke:#000000;stroke-width:0.8"
                 id="use41" />
            </g>
          </g>
          <g
             id="text_11">
            <!-- 30 -->
            <g
               transform="matrix(0.15,0,0,-0.15,153.9125,424.08143)"
               id="g43">
              <defs
                 id="defs41">
                <path
                   id="DejaVuSans-33"
                   d="m 2597,2516 q 453,-97 707,-404 255,-306 255,-756 0,-690 -475,-1069 -475,-378 -1350,-378 -293,0 -604,58 -311,58 -642,174 v 609 q 262,-153 574,-231 313,-78 654,-78 593,0 904,234 311,234 311,681 0,413 -289,645 -289,233 -804,233 h -544 v 519 h 569 q 465,0 712,186 247,186 247,536 0,359 -255,551 -254,193 -729,193 -260,0 -557,-57 -297,-56 -653,-174 v 562 q 360,100 674,150 314,50 592,50 719,0 1137,-327 419,-326 419,-882 0,-388 -222,-655 -222,-267 -631,-370 z"
                   transform="scale(0.015625)" />
              </defs>
              <use
                 xlink:href="#DejaVuSans-33"
                 id="use42" />
              <use
                 xlink:href="#DejaVuSans-30"
                 x="63.623047"
                 id="use43" />
            </g>
          </g>
        </g>
        <g
           id="ytick_5">
          <g
             id="line2d_11">
            <g
               id="g44">
              <use
                 xlink:href="#mf2bf89e2b9"
                 x="180"
                 y="352.64346"
                 style="stroke:#000000;stroke-width:0.8"
                 id="use44" />
            </g>
          </g>
          <g
             id="text_12">
            <!-- 40 -->
            <g
               transform="matrix(0.15,0,0,-0.15,153.9125,358.3423)"
               id="g46">
              <defs
                 id="defs44">
                <path
                   id="DejaVuSans-34"
                   d="M 2419,4116 825,1625 h 1594 z m -166,550 h 794 V 1625 h 666 V 1100 H 3047 V 0 H 2419 V 1100 H 313 v 609 z"
                   transform="scale(0.015625)" />
              </defs>
              <use
                 xlink:href="#DejaVuSans-34"
                 id="use45" />
              <use
                 xlink:href="#DejaVuSans-30"
                 x="63.623047"
                 id="use46" />
            </g>
          </g>
        </g>
        <g
           id="ytick_6">
          <g
             id="line2d_12">
            <g
               id="g47">
              <use
                 xlink:href="#mf2bf89e2b9"
                 x="180"
                 y="286.90436"
                 style="stroke:#000000;stroke-width:0.8"
                 id="use47" />
            </g>
          </g>
          <g
             id="text_13">
            <!-- 50 -->
            <g
               transform="matrix(0.15,0,0,-0.15,153.9125,292.60317)"
               id="g49">
              <use
                 xlink:href="#DejaVuSans-35"
                 id="use48" />
              <use
                 xlink:href="#DejaVuSans-30"
                 x="63.623047"
                 id="use49" />
            </g>
          </g>
        </g>
        <g
           id="ytick_7">
          <g
             id="line2d_13">
            <g
               id="g50">
              <use
                 xlink:href="#mf2bf89e2b9"
                 x="180"
                 y="221.16522"
                 style="stroke:#000000;stroke-width:0.8"
                 id="use50" />
            </g>
          </g>
          <g
             id="text_14">
            <!-- 60 -->
            <g
               transform="matrix(0.15,0,0,-0.15,153.9125,226.86404)"
               id="g52">
              <defs
                 id="defs50">
                <path
                   id="DejaVuSans-36"
                   d="m 2113,2584 q -425,0 -674,-291 -248,-290 -248,-796 0,-503 248,-796 249,-292 674,-292 425,0 673,292 248,293 248,796 0,506 -248,796 -248,291 -673,291 z m 1253,1979 v -575 q -238,112 -480,171 -242,60 -480,60 -625,0 -955,-422 -329,-422 -376,-1275 184,272 462,417 279,145 613,145 703,0 1111,-427 408,-426 408,-1160 0,-719 -425,-1154 -425,-434 -1131,-434 -810,0 -1238,620 -428,621 -428,1799 0,1106 525,1764 525,658 1409,658 238,0 480,-47 242,-47 505,-140 z"
                   transform="scale(0.015625)" />
              </defs>
              <use
                 xlink:href="#DejaVuSans-36"
                 id="use51" />
              <use
                 xlink:href="#DejaVuSans-30"
                 x="63.623047"
                 id="use52" />
            </g>
          </g>
        </g>
        <g
           id="ytick_8">
          <g
             id="line2d_14">
            <g
               id="g53">
              <use
                 xlink:href="#mf2bf89e2b9"
                 x="180"
                 y="155.42609"
                 style="stroke:#000000;stroke-width:0.8"
                 id="use53" />
            </g>
          </g>
          <g
             id="text_15">
            <!-- 70 -->
            <g
               transform="matrix(0.15,0,0,-0.15,153.9125,161.12491)"
               id="g55">
              <defs
                 id="defs53">
                <path
                   id="DejaVuSans-37"
                   d="M 525,4666 H 3525 V 4397 L 1831,0 H 1172 L 2766,4134 H 525 Z"
                   transform="scale(0.015625)" />
              </defs>
              <use
                 xlink:href="#DejaVuSans-37"
                 id="use54" />
              <use
                 xlink:href="#DejaVuSans-30"
                 x="63.623047"
                 id="use55" />
            </g>
          </g>
        </g>
        <g
           id="ytick_9">
          <g
             id="line2d_15">
            <g
               id="g56">
              <use
                 xlink:href="#mf2bf89e2b9"
                 x="180"
                 y="89.686951"
                 style="stroke:#000000;stroke-width:0.8"
                 id="use56" />
            </g>
          </g>
          <g
             id="text_16">
            <!-- 80 -->
            <g
               transform="matrix(0.15,0,0,-0.15,153.9125,95.385781)"
               id="g58">
              <defs
                 id="defs56">
                <path
                   id="DejaVuSans-38"
                   d="m 2034,2216 q -450,0 -708,-241 -257,-241 -257,-662 0,-422 257,-663 258,-241 708,-241 450,0 709,242 260,243 260,662 0,421 -258,662 -257,241 -711,241 z m -631,268 q -406,100 -633,378 -226,279 -226,679 0,559 398,884 399,325 1092,325 697,0 1094,-325 397,-325 397,-884 0,-400 -227,-679 -226,-278 -629,-378 456,-106 710,-416 255,-309 255,-755 Q 3634,634 3220,271 2806,-91 2034,-91 1263,-91 848,271 434,634 434,1313 q 0,446 256,755 257,310 713,416 z m -231,997 q 0,-362 226,-565 227,-203 636,-203 407,0 636,203 230,203 230,565 0,363 -230,566 -229,203 -636,203 -409,0 -636,-203 -226,-203 -226,-566 z"
                   transform="scale(0.015625)" />
              </defs>
              <use
                 xlink:href="#DejaVuSans-38"
                 id="use57" />
              <use
                 xlink:href="#DejaVuSans-30"
                 x="63.623047"
                 id="use58" />
            </g>
          </g>
        </g>
      </g>
      <g
         id="line2d_16">
        <path
           d="m 230.72727,615.6 h 1.21843 l 0.40614,-65.73913 0.81229,-82.17392 0.81229,-49.30435 0.81228,-21.91304 0.81229,-15.65218 0.81229,-11.73913 0.81228,-9.13043 0.81229,-27.02609 1.21843,-31.72627 1.21843,-24.40483 0.81228,-15.71238 1.21843,-22.9481 0.81229,-12.98075 2.43686,-0.61295 2.843,-0.51302 1.62457,-5.48779 1.62457,9.93392 1.62458,8.56372 0.40614,-9.06747 1.21843,-34.48024 2.03071,-11.53318 1.62458,-13.83981 h 1.62457 l 0.81228,6.91991 0.40615,1.92882 0.81228,7.62582 0.81229,7.74513 0.81229,6.91991 2.43686,6.9199 h 2.03071 l 3.24914,9.22655 1.62458,9.22654 0.40614,-1.15331 2.843,-32.29291 h 0.81229 l 0.40614,-2.8833 0.40614,-1.13343 0.81229,-0.59654 1.21843,-3.45995 1.62457,4.61327 3.65529,-20.75973 0.40614,-0.19884 0.40615,-2.26687 0.40614,-3.36053 0.40614,-5.70694 2.03072,-5.76658 0.40614,2.30663 h 2.03072 l 0.81228,-2.30663 1.21843,-10.37987 0.40615,-0.85504 0.40614,-3.4003 0.81229,-9.58448 1.62457,-9.22654 3.65528,10.37987 0.81229,4.61327 0.40615,1.15332 0.40614,-0.73574 0.40614,1.13343 0.81229,4.21558 0.81228,-2.30664 h 5.68601 l 0.40614,0.35793 0.40614,2.26686 0.81229,1.98848 h 0.81228 l 1.62458,-13.83981 1.62457,-9.22655 h 0.81229 l 1.62457,9.22655 0.40614,1.65044 0.40614,2.26686 1.21843,3.0026 2.84301,-16.14645 h 1.62457 l 0.81228,2.30664 1.21843,6.30348 1.21843,6.38302 0.40615,1.15331 h 2.03071 l 3.65529,20.75973 0.40614,5.76659 0.40614,3.34064 0.81229,12.64673 0.81229,12.84558 0.81228,6.91991 2.03072,11.53318 0.40614,1.15331 2.843,-8.07322 0.81229,-4.15592 0.40614,-0.78545 0.40615,2.63473 2.03071,5.76659 2.43686,-13.83981 0.81229,-6.91991 1.21843,-6.91991 0.40614,-1.47147 0.81229,-4.41443 1.62457,4.73258 1.62457,-4.61327 2.03072,-17.29978 0.40614,-4.61327 1.21843,-6.91991 0.40614,1.39194 0.40614,-2.26687 0.40615,-3.0026 0.40614,-0.73574 h 0.81229 l 1.21843,-10.37986 0.81228,-4.61327 2.43686,13.83981 1.21843,10.37987 0.40614,2.44583 0.81229,7.36731 0.40614,1.72004 0.81229,2.30664 1.21843,6.9199 2.03071,17.29977 2.43686,13.83982 0.40614,0.41758 h 0.40615 l 0.81228,-0.41758 1.21843,-10.37986 0.40615,3.45995 2.43685,34.59954 0.40615,3.45996 2.43686,-13.72051 0.81228,-0.0597 1.21843,10.3202 0.81229,9.22655 h 4.06143 l 0.81229,-4.61327 0.40614,-1.27263 h 0.40614 l 0.81229,1.27263 0.81228,2.30663 h 0.81229 l 3.24914,18.45309 2.03072,-11.83145 0.40614,1.13343 0.81229,13.00466 1.21843,-6.91991 2.03071,-17.29977 0.81229,4.61327 1.21843,3.45995 0.40614,5.7666 1.62458,13.24327 0.40614,1.44165 0.40614,0.30821 h 1.62457 l 2.84301,-8.07323 1.21843,3.45996 0.81228,6.9199 0.40614,1.61067 0.81229,6.06486 0.81229,5.01097 h 0.40614 l 2.03072,-23.06636 0.81228,-2.30663 2.03072,17.29977 h 0.81228 l 0.40615,0.39769 h 0.40614 l 0.81229,-2.70433 h 1.21842 l 1.62458,4.61327 1.21843,6.91991 2.03071,-23.06636 h 0.40614 l 0.40615,0.63632 h 0.40614 l 0.40614,-0.31816 0.40615,0.83516 0.40614,1.15332 1.62457,9.22654 h 2.43686 l 0.40614,-2.30663 1.62458,-13.83982 0.40614,-1.55101 0.40614,-3.4003 0.40615,-4.41443 0.40614,0.1392 h 1.62457 l 0.81229,-6.91991 3.65529,-10.37987 1.62457,0.0199 0.40614,-1.1732 2.843,-16.14646 h 2.03072 l 1.21843,-6.91991 0.40614,-4.61327 0.40614,-2.86341 0.81229,-12.88534 0.81229,-13.0842 0.40614,-5.76659 0.40614,-3.45995 2.43686,-13.83982 0.40614,-1.15332 h 2.43686 l 0.40615,0.31816 h 0.40614 l 0.81228,0.83516 h 1.21843 l 1.62458,-9.22654 2.03071,-17.29977 1.62457,4.61327 0.81229,5.20982 0.81229,4.01673 2.03071,-5.76659 4.46758,25.37299 0.40614,0.17896 0.40614,2.26687 0.81229,9.08735 2.843,16.14645 0.40614,1.15332 2.43686,20.75973 0.40615,1.15331 0.40614,2.30664 0.40614,0.39769 0.40614,2.26687 0.81229,6.56198 1.62457,9.22655 2.03072,28.83295 h 1.62457 l 1.21843,3.45995 0.40614,1.78963 0.40615,1.13344 0.81228,9.76343 0.81229,6.91991 h 0.81229 l 2.03071,-5.76659 2.03072,5.76659 0.40614,3.45995 0.40614,2.30664 0.40615,1.35216 1.21842,6.72106 2.03072,5.7666 2.43686,-6.91991 2.03071,5.76659 h 0.40615 l 0.40614,1.13343 0.81229,3.47984 h 0.40614 l 1.21843,-6.9199 h 0.81229 l 1.62457,4.61327 h 0.40614 l 1.62457,-13.83982 2.03072,5.76659 h 0.40614 l 4.06143,11.53318 4.87372,-13.83981 3.24915,-18.45309 1.62457,-13.83982 0.40614,1.15332 0.40614,1.80951 0.40615,1.13344 1.21843,7.43691 2.03071,-11.53318 0.81229,-2.30664 1.62457,9.22655 0.40614,-1.15332 1.21843,-10.37986 0.40614,-1.49136 0.81229,-6.12452 0.40615,-1.61067 1.21842,-3.45995 2.43686,6.91991 1.62457,-4.61328 2.43686,13.63103 0.40615,0.20879 1.62457,4.61327 1.62457,9.22655 1.62457,13.83981 1.62458,-4.61327 0.40614,0.31816 0.40614,-1.13344 0.40614,0.40764 0.81229,5.02091 0.81229,4.61328 h 1.21843 l 1.62457,9.22654 0.81229,9.22654 2.03071,5.50809 0.40614,2.26687 0.81229,6.06486 h 1.62457 l 0.81229,-9.22654 2.843,-16.14646 1.21843,3.45996 0.81229,4.51385 1.21843,8.17265 0.40614,1.15331 h 2.43686 l 1.21843,-3.45995 1.62457,9.22654 0.40614,1.15332 0.40615,1.88906 0.40614,1.13343 0.81228,-7.63576 1.21843,-6.91991 2.43686,-27.67963 0.81229,-2.30664 h 0.81229 l 1.21842,-6.91991 0.40615,-0.67608 0.40614,-2.26687 1.21843,-8.59023 2.43686,27.67964 1.21843,6.91991 1.21843,-6.91991 h 0.40614 l 0.81229,2.30663 0.40614,2.40606 h 0.40614 l 0.40615,-0.62637 0.40614,0.52695 0.81228,2.30664 h 1.21843 l 0.40615,1.15332 0.81228,4.61327 1.21843,-3.45996 1.62458,-9.22654 0.40614,3.45995 0.40614,1.25275 0.40614,3.4003 0.81229,9.18677 2.43686,13.83982 0.81228,2.30663 h 2.03072 l 1.21843,-3.45995 0.40614,1.92882 0.81229,6.47251 0.40614,0.82521 1.21843,3.45996 1.62457,-13.83982 1.21843,-6.91991 1.21843,-13.83981 h 0.40614 l 0.81229,2.30663 0.40614,2.26687 h 0.40615 l 0.40614,-0.55677 0.40614,0.59654 1.21843,6.91991 1.62458,4.61327 0.40614,-3.45996 1.21843,-6.9199 0.40614,1.15331 h 1.62457 l 0.40615,1.0539 h 0.40614 l 0.81229,2.40606 h 1.21842 l 2.03072,5.76659 0.81229,-4.61327 1.21843,-3.45996 1.21843,-6.9199 0.40614,0.0199 0.40614,-1.13343 0.81229,-4.65304 1.62457,13.83981 h 2.43686 l 2.03071,-21.91304 0.40615,-3.45995 0.81228,-4.21558 1.21843,-13.0842 1.21843,-10.37986 1.21843,3.45995 0.40615,3.45996 h 1.62457 l 1.62457,-4.61327 0.40614,0.75562 0.40615,-1.13344 0.40614,-0.38775 0.81229,-5.00102 1.21842,-6.91991 h 0.40615 l 2.03071,17.29977 h 0.40615 l 1.21843,-6.91991 0.81228,-6.91991 0.40614,-1.35216 0.40615,-3.4003 1.21843,-12.54731 h 0.40614 l 2.843,24.21968 h 2.03072 l 2.03071,-5.8859 1.62457,13.95913 0.40615,2.30664 h 0.81228 l 1.21843,3.45995 0.81229,4.61327 h 1.21843 l 1.21843,7.27784 1.21843,13.48189 0.40614,2.30663 h 0.81229 l 2.03071,5.76659 3.24915,27.67964 0.40614,0.63631 0.40614,1.13343 0.40615,2.56514 0.40614,-0.87493 2.43686,-13.83982 2.843,32.2929 h 1.21843 l 0.40614,-3.14179 0.40614,-4.53374 0.81229,-6.16428 1.21843,-3.45995 1.62457,-9.22655 0.40615,-1.15332 1.21843,3.45996 0.40614,-1.15332 1.21843,-6.91991 h 0.40614 l 0.81229,4.21558 0.81228,5.01096 1.62458,4.61328 2.03071,-11.53319 1.62457,-4.61327 h 0.40615 l 0.81228,4.61328 0.40615,0.7755 0.81228,4.19569 0.40615,1.94871 1.21842,3.45996 1.21843,-6.91991 h 1.62458 l 0.40614,4.61327 1.62457,9.22655 h 0.40615 l 0.40614,-0.6562 h 0.40614 l 0.81229,0.6562 1.62457,4.61327 h 0.40614 l 1.62458,-4.61327 1.21842,3.45995 0.81229,-2.30663 0.81229,-4.61328 0.40614,-0.59654 1.21843,-6.32336 0.40614,-1.15332 2.03072,11.53318 1.62457,4.61327 h 0.40614 l 1.62457,-4.61327 h 0.40615 l 0.40614,-0.6562 h 0.40614 l 0.81229,0.6562 1.21843,3.45995 2.03072,-5.76659 3.24914,9.22655 0.40614,0.35792 0.40615,1.13344 0.40614,-0.16902 1.21843,-10.54889 0.81228,-4.61327 h 0.81229 l 2.03072,-5.76659 h 0.40614 l 1.21843,6.91991 0.40614,1.15332 0.40615,0.55677 h 0.40614 l 0.81228,-0.55677 h 1.21843 l 2.03072,-17.29977 0.40614,-2.30664 1.62457,-4.61327 2.03072,5.50809 0.81229,-0.89482 h 0.81228 l 5.27986,-14.99313 0.40615,-4.61328 0.40614,-3.30087 0.40614,-1.13344 1.21843,15.96749 0.40615,2.30664 1.21842,3.45995 1.62458,9.22655 h 0.81228 l 0.81229,-6.91991 0.81229,-4.61327 h 0.40614 l 0.40614,0.97435 h 0.40614 l 0.81229,-0.97435 0.81229,6.9199 2.03071,21.91305 0.40615,3.45995 h 0.81228 l 1.21843,-6.91991 1.21843,-3.45995 0.40614,-0.53689 0.81229,-2.59497 0.40614,-0.3281 h 4.46758 l 0.40614,2.30664 1.21843,17.29977 h 0.40614 l 0.40614,1.45159 1.62458,-12.98477 h 0.40614 l 0.81229,-2.30664 h 1.62457 l 0.40614,3.45996 1.21843,3.45995 1.62457,-4.61327 0.40615,-0.61643 0.40614,-1.13343 0.40614,-0.27839 0.81229,-2.58502 1.62457,-4.61327 0.81229,4.61327 1.21843,3.45996 h 0.40614 l 1.21843,3.45995 0.81229,4.61327 0.40614,1.53113 0.40614,2.26687 1.62457,6.58186 1.62458,9.22655 h 0.81228 l 0.81229,-4.61328 1.62457,-4.61327 0.81229,4.61328 0.40614,0.13919 0.81229,4.50391 0.81228,-0.0298 2.03072,-5.76659 0.81228,2.30663 1.62458,-4.61327 1.21843,3.45995 h 0.40614 l 0.40614,0.1392 0.81229,-0.0696 0.81229,-0.0696 1.21842,-3.45995 h 0.40615 l 1.21843,3.45995 h 1.21843 l 1.62457,-4.61327 h 0.40614 l 0.81229,2.4856 0.40614,0.47724 0.40614,-0.6562 h 0.81229 l 0.40614,-3.45996 1.21843,-3.45995 0.40615,1.15332 h 3.24914 l 0.81229,-1.98848 0.81228,-2.44583 0.40615,-0.17897 h 2.03071 l 1.21843,6.91991 0.40614,1.15332 1.21843,-3.45995 h 1.62458 l 0.40614,0.27839 0.40614,-1.13344 0.40615,-0.71585 0.40614,0.41758 h 0.81228 l 1.62458,-4.61327 h 2.03071 l 0.81229,-2.30664 1.21843,-6.9199 0.40614,-0.59655 0.40614,-2.26687 0.40615,-3.16168 0.40614,0.25851 1.21843,6.9199 h 3.65529 l 0.40614,1.15332 h 1.21843 l 0.40614,-0.63631 h 0.40615 l 0.81228,-0.51701 h 1.21843 l 0.81229,-4.61327 0.81228,-2.30663 0.81229,2.30663 h 1.62457 l 0.40614,-2.30664 0.81229,-2.30663 0.40614,-1.59079 0.81229,2.50549 0.81229,2.54525 0.40614,1.15332 h 0.40614 l 1.21843,-3.45996 h 0.81229 l 3.24914,9.22655 0.40615,0.49712 0.40614,1.13343 0.81229,-0.47723 h 2.843 l 1.21843,-3.45996 h 0.40614 l 1.21843,3.45996 h 0.81229 l 0.40614,0.47723 h 0.40614 l 0.81229,-0.47723 0.40614,2.30663 h 1.21843 l 0.40614,-2.30663 h 2.03072 l 1.62457,9.22654 h 0.40614 l 1.62458,-8.98793 0.81228,2.06802 0.81229,2.30664 h 4.46757 l 0.81229,2.30663 0.81229,2.6248 0.81228,-0.31816 h 1.21843 l 0.40614,-1.15332 h 1.62458 l 3.24914,-9.22654 0.40614,1.63055 0.40615,1.13344 0.40614,2.06801 0.81229,7.8545 0.40614,1.15332 1.21843,-3.45996 h 2.843 l 1.62457,9.22655 0.40615,0.15908 0.81228,-0.0795 0.40614,-0.0795 1.62458,4.61327 h 2.843 l 1.62457,-4.61327 h 0.40614 l 0.40615,0.15908 0.81228,-0.0795 0.40615,-0.0795 1.21843,3.45995 1.62457,9.22655 2.03071,5.76659 h 0.40615 l 1.21843,-6.91991 0.40614,-0.0398 0.40614,-1.13343 0.40615,-0.55678 0.40614,1.72998 0.40614,1.15332 h 0.40614 l 1.21843,-3.45996 h 5.27986 l 0.81229,-3.45995 0.40614,-1.15332 h 0.40615 l 1.62457,-4.61327 h 1.21843 l 1.62457,4.61327 h 5.68601 l 0.81228,2.30664 0.81229,4.61327 0.81228,2.30664 2.03072,-0.0795 0.40614,1.7598 0.81229,5.23964 0.40614,2.30664 h 5.686 l 0.40615,-0.23862 h 0.40614 l 0.40614,0.11931 1.62458,4.73258 1.21842,-3.45995 0.40615,-2.30664 1.21843,-3.45995 h 2.43686 l 0.40614,-0.15908 h 0.40614 l 0.81229,-3.30088 0.40614,-1.15331 h 1.21843 l 0.81229,-2.30664 h 0.81228 l 0.81229,2.30664 h 2.03071 l 0.40615,-1.15332 0.40614,-0.0597 0.40614,-1.13343 0.40615,-1.70015 0.40614,-0.56672 h 4.46757 l 1.62458,-4.61327 h 3.2491 l 0.4062,2.30664 1.6246,4.61327 1.6245,-4.61327 h 4.4676 l 1.6246,-4.61328 h 0.8123 l 3.2491,-8.94815 4.4676,12.40811 0.8123,4.61327 0.8123,2.30664 h 1.2184 l 1.2184,-3.45996 0.8123,1.15332 1.2184,-6.91991 h 0.8123 l 0.8123,4.61327 0.8123,2.30664 h 2.0307 l 1.6246,4.51385 1.6245,0.0994 h 1.2185 l 0.4061,1.15332 1.6246,9.22654 h 1.6246 l 0.8122,-2.30663 0.4062,-0.23862 h 0.4061 l 0.8123,-0.9147 h 0.8123 l 1.6246,-9.22654 0.4061,-1.15332 h 2.0307 l 1.6246,4.61327 0.4062,-0.11931 0.4061,1.13343 0.4061,1.78964 0.4062,0.65619 0.8123,-4.61327 h 0.8123 l 2.0307,5.76659 h 0.8123 l 0.4061,-1.15332 h 1.2184 l 1.6246,4.48403 0.4061,0.12925 h 0.8123 l 2.0307,-5.76659 0.4062,1.15331 h 1.2184 l 0.4062,-1.15331 h 0.8122 l 0.8123,-2.30664 0.4062,-0.11931 0.4061,-1.13343 0.4062,-1.67032 0.4061,0.61643 0.4062,1.15331 h 0.8122 l 0.8123,-2.30663 4.8737,-0.0597 0.4062,1.13344 0.4061,1.7598 0.4062,-0.52695 h 2.4368 l 0.8123,2.30664 0.4062,-1.15332 1.2184,-6.91991 1.6246,-4.61327 0.8122,0.0795 0.4062,-0.0398 1.6246,4.5735 h 0.8122 l 1.6246,4.61328 h 2.843 l 0.8123,-2.34641 0.4062,-0.54683 0.4061,0.5866 0.8123,2.30664 6.4983,-0.0795 0.4061,-1.68027 0.4062,-0.54683 h 1.2184 l 0.8123,-2.30664 1.6245,4.61328 3.2492,-0.0795 0.4061,-1.13344 0.8123,-3.4003 h 0.8123 l 1.6246,4.61328 h 2.843 l 1.2184,3.45995 0.4062,-0.1392 0.4061,2.26687 2.4369,7.09887 h 2.0307 l 1.6245,-4.61327 h 1.2185 l 0.4061,-0.21873 0.4062,-1.13344 0.8122,-3.2611 h 4.0615 l 3.2491,-9.20666 0.4062,1.13343 h 1.2184 l 0.4061,-1.15332 h 3.2492 l 1.2184,-3.45995 h 0.8123 l 0.4061,1.21297 h 0.4062 l 0.4061,-0.60648 0.8123,-5.21976 0.4062,-1.15332 2.843,8.07323 0.4061,2.30663 2.4369,6.91991 0.4061,-0.11931 0.8123,0.0597 0.8123,0.0596 h 2.4368 l 3.2492,9.22654 h 0.4061 l 0.4062,0.85505 h 0.4061 l 0.8123,-0.85505 h 1.6246 l 1.6245,-4.61327 1.2185,3.45996 1.6245,-4.61328 h 0.4062 l 0.4061,0.95447 0.4062,2.26687 0.4061,2.98272 0.4062,0.71585 h 0.8122 l 0.4062,-1.15332 h 1.2184 l 2.0307,-5.76659 0.8123,-4.61327 0.4062,-1.15331 1.6245,4.45419 1.2185,0.15908 h 2.4368 l 1.6246,-4.61327 h 0.4061 l 3.2492,-9.22655 h 0.4061 l 0.8123,2.30664 0.8123,4.61327 0.8123,2.30664 h 2.0307 l 1.6246,-4.61328 h 0.4061 l 0.4062,-1.13343 0.4061,-1.72998 0.4061,-0.59654 h 1.6246 l 1.2184,-3.45996 0.4062,1.15332 1.2184,6.91991 1.2184,-3.45995 h 0.4062 l 1.2184,3.44007 1.2184,0.0199 1.2185,3.45996 1.6245,9.22654 h 1.2185 l 0.8123,2.30663 0.8122,4.61328 0.4062,1.15331 0.4061,-0.37781 0.4062,1.13344 0.8123,0.39769 1.6245,-4.61327 h 0.8123 l 1.6246,4.61327 h 2.4369 l 0.4061,-0.39769 h 0.4061 l 0.4062,0.19884 0.8123,-2.10778 h 0.8123 l 0.4061,1.15331 1.6246,-4.61327 h 1.2184 l 1.6246,-4.61327 h 0.4061 l 0.4062,-0.21873 h 0.4061 l 0.4061,-0.4673 0.4062,-1.62061 1.2184,-6.9199 h 0.8123 l 0.8123,2.30663 h 0.4061 l 2.843,-8.07322 1.6246,4.59338 1.6246,0.0199 1.6245,-4.61327 h 2.8431 l 1.2184,3.44007 0.8123,4.01672 0.4061,1.76975 h 2.843 l 1.6246,-4.61327 h 1.2184 l 1.6246,4.49396 0.4061,1.77969 v 0"
           clip-path="url(#pf10ef50bbc)"
           style="fill:none;stroke:#1f77b4;stroke-width:1.5;stroke-linecap:square"
           id="path58" />
      </g>
      <g
         id="patch_3">
        <path
           d="M 180,640.8 V 86.4"
           style="fill:none;stroke:#000000;stroke-width:0.8;stroke-linecap:square;stroke-linejoin:miter"
           id="path59" />
      </g>
      <g
         id="patch_4">
        <path
           d="M 1296,640.8 V 86.4"
           style="fill:none;stroke:#000000;stroke-width:0.8;stroke-linecap:square;stroke-linejoin:miter"
           id="path60" />
      </g>
      <g
         id="patch_5">
        <path
           d="M 180,640.8 H 1296"
           style="fill:none;stroke:#000000;stroke-width:0.8;stroke-linecap:square;stroke-linejoin:miter"
           id="path61" />
      </g>
      <g
         id="patch_6">
        <path
           d="M 180,86.4 H 1296"
           style="fill:none;stroke:#000000;stroke-width:0.8;stroke-linecap:square;stroke-linejoin:miter"
           id="path62" />
      </g>
      <g
         id="text_17">
        <!-- 38.7 -->
        <g
           transform="matrix(0.11,0,0,-0.11,1245.2727,361.22376)"
           id="g65">
          <defs
             id="defs62">
            <path
               id="DejaVuSans-2e"
               d="m 684,794 h 660 V 0 H 684 Z"
               transform="scale(0.015625)" />
          </defs>
          <use
             xlink:href="#DejaVuSans-33"
             id="use62" />
          <use
             xlink:href="#DejaVuSans-38"
             x="63.623047"
             id="use63" />
          <use
             xlink:href="#DejaVuSans-2e"
             x="127.24609"
             id="use64" />
          <use
             xlink:href="#DejaVuSans-37"
             x="159.0332"
             id="use65" />
        </g>
      </g>
      <g
         id="text_18">
        <!-- 0.0 -->
        <g
           transform="matrix(0.11,0,0,-0.11,230.72727,615.6)"
           id="g68">
          <use
             xlink:href="#DejaVuSans-30"
             id="use66" />
          <use
             xlink:href="#DejaVuSans-2e"
             x="63.623047"
             id="use67" />
          <use
             xlink:href="#DejaVuSans-30"
             x="95.410156"
             id="use68" />
        </g>
      </g>
      <g
         id="text_19">
        <!-- 76.7 -->
        <g
           transform="matrix(0.11,0,0,-0.11,470.75784,111.6)"
           id="g72">
          <use
             xlink:href="#DejaVuSans-37"
             id="use69" />
          <use
             xlink:href="#DejaVuSans-36"
             x="63.623047"
             id="use70" />
          <use
             xlink:href="#DejaVuSans-2e"
             x="127.24609"
             id="use71" />
          <use
             xlink:href="#DejaVuSans-37"
             x="159.0332"
             id="use72" />
        </g>
      </g>
      <text
         xml:space="preserve"
         style="font-style:normal;font-variant:normal;font-weight:normal;font-stretch:normal;font-size:22px;font-family:'Times New Roman';-inkscape-font-specification:'Times New Roman, Normal';font-variant-ligatures:normal;font-variant-caps:normal;font-variant-numeric:normal;font-variant-east-asian:normal;text-align:start;writing-mode:lr-tb;direction:ltr;text-anchor:start;fill:#000000;stroke-width:0.75;stroke-linecap:butt;stroke-linejoin:round"
         x="461.99414"
         y="72.535614"
         id="text136-1-5"><tspan
           id="tspan137-0"
           x="461.99414"
           y="72.535614">Moving average of Minimum Dominating Set relative size</tspan></text>
      <g
         id="text_20"
         transform="translate(-1.127852,-6.5791366)">
        <!-- Moving average of Minimum Dominating Set relative size -->
        <g
           transform="matrix(0.18,0,0,-0.18,479.69016,80.4)"
           id="g126"
           style="display:none">
          <defs
             id="defs72">
            <path
               id="DejaVuSans-4d"
               d="m 628,4666 h 941 L 2759,1491 3956,4666 h 941 V 0 H 4281 V 4097 L 3078,897 H 2444 L 1241,4097 V 0 H 628 Z"
               transform="scale(0.015625)" />
            <path
               id="DejaVuSans-76"
               d="M 191,3500 H 800 L 1894,563 2988,3500 h 609 L 2284,0 h -781 z"
               transform="scale(0.015625)" />
            <path
               id="DejaVuSans-69"
               d="m 603,3500 h 575 V 0 H 603 Z m 0,1363 h 575 V 4134 H 603 Z"
               transform="scale(0.015625)" />
            <path
               id="DejaVuSans-6e"
               d="M 3513,2113 V 0 h -575 v 2094 q 0,497 -194,743 -194,247 -581,247 -466,0 -735,-297 -269,-296 -269,-809 V 0 H 581 v 3500 h 578 v -544 q 207,316 486,472 280,156 646,156 603,0 912,-373 310,-373 310,-1098 z"
               transform="scale(0.015625)" />
            <path
               id="DejaVuSans-67"
               d="m 2906,1791 q 0,625 -258,968 -257,344 -723,344 -462,0 -720,-344 -258,-343 -258,-968 0,-622 258,-966 258,-344 720,-344 466,0 723,344 258,344 258,966 z M 3481,434 q 0,-893 -397,-1329 -396,-436 -1215,-436 -303,0 -572,45 -269,45 -522,139 v 559 q 253,-137 500,-202 247,-66 503,-66 566,0 847,295 281,295 281,892 V 616 Q 2728,306 2450,153 2172,0 1784,0 1141,0 747,490 353,981 353,1791 q 0,812 394,1302 394,491 1037,491 388,0 666,-153 278,-153 456,-462 v 531 h 575 z"
               transform="scale(0.015625)" />
            <path
               id="DejaVuSans-20"
               transform="scale(0.015625)"
               d="" />
            <path
               id="DejaVuSans-61"
               d="m 2194,1759 q -697,0 -966,-159 -269,-159 -269,-544 0,-306 202,-486 202,-179 548,-179 479,0 768,339 289,339 289,901 v 128 z m 1147,238 V 0 H 2766 V 531 Q 2569,213 2275,61 1981,-91 1556,-91 q -537,0 -855,302 -317,302 -317,808 0,590 395,890 396,300 1180,300 h 807 v 57 q 0,397 -261,614 -261,217 -733,217 -300,0 -585,-72 -284,-72 -546,-216 v 532 q 315,122 612,182 297,61 578,61 760,0 1135,-394 375,-393 375,-1193 z"
               transform="scale(0.015625)" />
            <path
               id="DejaVuSans-72"
               d="m 2631,2963 q -97,56 -211,82 -114,27 -251,27 -488,0 -749,-317 -261,-317 -261,-911 V 0 H 581 v 3500 h 578 v -544 q 182,319 472,473 291,155 707,155 59,0 131,-8 72,-7 159,-23 z"
               transform="scale(0.015625)" />
            <path
               id="DejaVuSans-66"
               d="m 2375,4863 v -479 h -550 q -309,0 -430,-125 -120,-125 -120,-450 v -309 h 947 V 3053 H 1275 V 0 H 697 V 3053 H 147 v 447 h 550 v 244 q 0,584 272,851 272,268 862,268 z"
               transform="scale(0.015625)" />
            <path
               id="DejaVuSans-6d"
               d="m 3328,2828 q 216,388 516,572 300,184 706,184 547,0 844,-383 297,-382 297,-1088 V 0 h -578 v 2094 q 0,503 -179,746 -178,244 -543,244 -447,0 -707,-297 -259,-296 -259,-809 V 0 h -578 v 2094 q 0,506 -178,748 -178,242 -550,242 -441,0 -701,-298 -259,-298 -259,-808 V 0 H 581 v 3500 h 578 v -544 q 197,322 472,475 275,153 653,153 382,0 649,-194 267,-193 395,-562 z"
               transform="scale(0.015625)" />
            <path
               id="DejaVuSans-75"
               d="m 544,1381 v 2119 h 575 V 1403 q 0,-497 193,-746 194,-248 582,-248 465,0 735,297 271,297 271,810 v 1984 h 575 V 0 H 2900 V 538 Q 2691,219 2414,64 2138,-91 1772,-91 1169,-91 856,284 544,659 544,1381 Z m 1447,2203 z"
               transform="scale(0.015625)" />
            <path
               id="DejaVuSans-44"
               d="M 1259,4147 V 519 h 763 q 966,0 1414,437 448,438 448,1382 0,937 -448,1373 -448,436 -1414,436 z m -631,519 h 1297 q 1356,0 1990,-564 635,-564 635,-1764 Q 4550,1131 3912,565 3275,0 1925,0 H 628 Z"
               transform="scale(0.015625)" />
            <path
               id="DejaVuSans-74"
               d="M 1172,4494 V 3500 H 2356 V 3053 H 1172 V 1153 q 0,-428 117,-550 117,-122 477,-122 h 590 V 0 H 1766 Q 1100,0 847,248 594,497 594,1153 V 3053 H 172 v 447 h 422 v 994 z"
               transform="scale(0.015625)" />
            <path
               id="DejaVuSans-53"
               d="m 3425,4513 v -616 q -359,172 -678,256 -319,85 -616,85 -515,0 -795,-200 -280,-200 -280,-569 0,-310 186,-468 186,-157 705,-254 l 381,-78 q 706,-135 1042,-474 336,-339 336,-907 0,-679 -455,-1029 -454,-350 -1332,-350 -331,0 -705,75 -373,75 -773,222 v 650 q 384,-215 753,-325 369,-109 725,-109 540,0 834,212 294,213 294,607 0,343 -211,537 -211,194 -692,291 l -385,75 q -706,140 -1022,440 -315,300 -315,835 0,619 436,975 436,356 1201,356 329,0 669,-60 341,-59 697,-177 z"
               transform="scale(0.015625)" />
            <path
               id="DejaVuSans-6c"
               d="m 603,4863 h 575 V 0 H 603 Z"
               transform="scale(0.015625)" />
            <path
               id="DejaVuSans-73"
               d="m 2834,3397 v -544 q -243,125 -506,187 -262,63 -544,63 -428,0 -642,-131 -214,-131 -214,-394 0,-200 153,-314 153,-114 616,-217 l 197,-44 q 612,-131 870,-370 258,-239 258,-667 0,-488 -386,-773 Q 2250,-91 1575,-91 1294,-91 989,-36 684,19 347,128 v 594 q 319,-166 628,-249 309,-82 613,-82 406,0 624,139 219,139 219,392 0,234 -158,359 -157,125 -692,241 l -200,47 q -534,112 -772,345 -237,233 -237,639 0,494 350,762 350,269 994,269 318,0 599,-47 282,-46 519,-140 z"
               transform="scale(0.015625)" />
            <path
               id="DejaVuSans-7a"
               d="M 353,3500 H 3084 V 2975 L 922,459 H 3084 V 0 H 275 V 525 L 2438,3041 H 353 Z"
               transform="scale(0.015625)" />
          </defs>
          <use
             xlink:href="#DejaVuSans-4d"
             id="use73" />
          <use
             xlink:href="#DejaVuSans-6f"
             x="86.279297"
             id="use74" />
          <use
             xlink:href="#DejaVuSans-76"
             x="147.46094"
             id="use75" />
          <use
             xlink:href="#DejaVuSans-69"
             x="206.64062"
             id="use76" />
          <use
             xlink:href="#DejaVuSans-6e"
             x="234.42383"
             id="use77" />
          <use
             xlink:href="#DejaVuSans-67"
             x="297.80273"
             id="use78" />
          <use
             xlink:href="#DejaVuSans-20"
             x="361.2793"
             id="use79" />
          <use
             xlink:href="#DejaVuSans-61"
             x="393.06641"
             id="use80" />
          <use
             xlink:href="#DejaVuSans-76"
             x="454.3457"
             id="use81" />
          <use
             xlink:href="#DejaVuSans-65"
             x="513.52539"
             id="use82" />
          <use
             xlink:href="#DejaVuSans-72"
             x="575.04883"
             id="use83" />
          <use
             xlink:href="#DejaVuSans-61"
             x="616.16211"
             id="use84" />
          <use
             xlink:href="#DejaVuSans-67"
             x="677.44141"
             id="use85" />
          <use
             xlink:href="#DejaVuSans-65"
             x="740.91797"
             id="use86" />
          <use
             xlink:href="#DejaVuSans-20"
             x="802.44141"
             id="use87" />
          <use
             xlink:href="#DejaVuSans-6f"
             x="834.22852"
             id="use88" />
          <use
             xlink:href="#DejaVuSans-66"
             x="895.41016"
             id="use89" />
          <use
             xlink:href="#DejaVuSans-20"
             x="930.61523"
             id="use90" />
          <use
             xlink:href="#DejaVuSans-4d"
             x="962.40234"
             id="use91" />
          <use
             xlink:href="#DejaVuSans-69"
             x="1048.6816"
             id="use92" />
          <use
             xlink:href="#DejaVuSans-6e"
             x="1076.4648"
             id="use93" />
          <use
             xlink:href="#DejaVuSans-69"
             x="1139.8438"
             id="use94" />
          <use
             xlink:href="#DejaVuSans-6d"
             x="1167.627"
             id="use95" />
          <use
             xlink:href="#DejaVuSans-75"
             x="1265.0391"
             id="use96" />
          <use
             xlink:href="#DejaVuSans-6d"
             x="1328.418"
             id="use97" />
          <use
             xlink:href="#DejaVuSans-20"
             x="1425.8301"
             id="use98" />
          <use
             xlink:href="#DejaVuSans-44"
             x="1457.6172"
             id="use99" />
          <use
             xlink:href="#DejaVuSans-6f"
             x="1534.6191"
             id="use100" />
          <use
             xlink:href="#DejaVuSans-6d"
             x="1595.8008"
             id="use101" />
          <use
             xlink:href="#DejaVuSans-69"
             x="1693.2129"
             id="use102" />
          <use
             xlink:href="#DejaVuSans-6e"
             x="1720.9961"
             id="use103" />
          <use
             xlink:href="#DejaVuSans-61"
             x="1784.375"
             id="use104" />
          <use
             xlink:href="#DejaVuSans-74"
             x="1845.6543"
             id="use105" />
          <use
             xlink:href="#DejaVuSans-69"
             x="1884.8633"
             id="use106" />
          <use
             xlink:href="#DejaVuSans-6e"
             x="1912.6465"
             id="use107" />
          <use
             xlink:href="#DejaVuSans-67"
             x="1976.0254"
             id="use108" />
          <use
             xlink:href="#DejaVuSans-20"
             x="2039.502"
             id="use109" />
          <use
             xlink:href="#DejaVuSans-53"
             x="2071.2891"
             id="use110" />
          <use
             xlink:href="#DejaVuSans-65"
             x="2134.7656"
             id="use111" />
          <use
             xlink:href="#DejaVuSans-74"
             x="2196.2891"
             id="use112" />
          <use
             xlink:href="#DejaVuSans-20"
             x="2235.498"
             id="use113" />
          <use
             xlink:href="#DejaVuSans-72"
             x="2267.2852"
             id="use114" />
          <use
             xlink:href="#DejaVuSans-65"
             x="2306.1484"
             id="use115" />
          <use
             xlink:href="#DejaVuSans-6c"
             x="2367.6719"
             id="use116" />
          <use
             xlink:href="#DejaVuSans-61"
             x="2395.4551"
             id="use117" />
          <use
             xlink:href="#DejaVuSans-74"
             x="2456.7344"
             id="use118" />
          <use
             xlink:href="#DejaVuSans-69"
             x="2495.9434"
             id="use119" />
          <use
             xlink:href="#DejaVuSans-76"
             x="2523.7266"
             id="use120" />
          <use
             xlink:href="#DejaVuSans-65"
             x="2582.9062"
             id="use121" />
          <use
             xlink:href="#DejaVuSans-20"
             x="2644.4297"
             id="use122" />
          <use
             xlink:href="#DejaVuSans-73"
             x="2676.2168"
             id="use123" />
          <use
             xlink:href="#DejaVuSans-69"
             x="2728.3164"
             id="use124" />
          <use
             xlink:href="#DejaVuSans-7a"
             x="2756.0996"
             id="use125" />
          <use
             xlink:href="#DejaVuSans-65"
             x="2808.5898"
             id="use126" />
        </g>
      </g>
      <g
         id="legend_1"
         style="display:none">
        <g
           id="patch_7">
          <path
             d="M 1171.4156,120.83437 H 1285.5 q 3,0 3,-3 V 96.9 q 0,-3 -3,-3 h -114.0844 q -3,0 -3,3 v 20.93437 q 0,3 3,3 z"
             style="opacity:0.8;fill:#ffffff;stroke:#cccccc;stroke-linejoin:miter"
             id="path126" />
        </g>
        <g
           id="line2d_17">
          <path
             d="m 1174.4156,106.04766 h 15 15"
             style="fill:none;stroke:#1f77b4;stroke-width:1.5;stroke-linecap:square"
             id="path127" />
        </g>
        <g
           id="text_21">
          <!-- rolling_tr -->
          <g
             transform="matrix(0.15,0,0,-0.15,1216.4156,111.29766)"
             id="g136">
            <defs
               id="defs127">
              <path
                 id="DejaVuSans-5f"
                 d="m 3263,-1063 v -446 H -63 v 446 z"
                 transform="scale(0.015625)" />
            </defs>
            <use
               xlink:href="#DejaVuSans-72"
               id="use127" />
            <use
               xlink:href="#DejaVuSans-6f"
               x="38.863281"
               id="use128" />
            <use
               xlink:href="#DejaVuSans-6c"
               x="100.04492"
               id="use129" />
            <use
               xlink:href="#DejaVuSans-6c"
               x="127.82812"
               id="use130" />
            <use
               xlink:href="#DejaVuSans-69"
               x="155.61133"
               id="use131" />
            <use
               xlink:href="#DejaVuSans-6e"
               x="183.39453"
               id="use132" />
            <use
               xlink:href="#DejaVuSans-67"
               x="246.77344"
               id="use133" />
            <use
               xlink:href="#DejaVuSans-5f"
               x="310.25"
               id="use134" />
            <use
               xlink:href="#DejaVuSans-74"
               x="360.25"
               id="use135" />
            <use
               xlink:href="#DejaVuSans-72"
               x="399.45898"
               id="use136" />
          </g>
        </g>
      </g>
    </g>
  </g>
  <defs
     id="defs136">
    <clipPath
       id="pf10ef50bbc">
      <rect
         x="180"
         y="86.400002"
         width="1116"
         height="554.40002"
         id="rect136" />
    </clipPath>
  </defs>
</svg>
